<svg width="78" height="78" viewBox="0 0 78 78" fill="none" xmlns="http://www.w3.org/2000/svg">
<rect width="78" height="78" rx="16" fill="#292929"/>
<path d="M36.008 48L34.952 42.528H30.024L29 48H25.32L29.864 26.08H35.208L39.72 48H36.008ZM30.632 39.264H34.312L32.456 29.536L30.632 39.264ZM41.4393 31.008C41.4393 29.408 41.9833 28.16 43.0713 27.264C44.1806 26.368 45.8446 25.92 48.0633 25.92C49.5139 25.92 50.8153 26.08 51.9673 26.4V29.92C50.6873 29.5573 49.4606 29.376 48.2873 29.376C47.1353 29.376 46.3459 29.5467 45.9193 29.888C45.5139 30.208 45.3113 30.688 45.3113 31.328V42.752C45.3113 44.0533 46.2393 44.704 48.0953 44.704C49.6526 44.704 50.9753 44.5333 52.0633 44.192V47.68C50.9113 48 49.5566 48.16 47.9993 48.16C43.6259 48.16 41.4393 46.4747 41.4393 43.104V31.008Z" fill="white"/>
</svg>
