<svg width="77" height="77" viewBox="0 0 77 77" fill="none" xmlns="http://www.w3.org/2000/svg">
<rect width="77" height="77" rx="16" fill="#292929"/>
<path fill-rule="evenodd" clip-rule="evenodd" d="M40 33.5C40 34.3284 39.3284 35 38.5 35C37.6716 35 37 34.3284 37 33.5C37 32.6716 37.6716 32 38.5 32C39.3284 32 40 32.6716 40 33.5ZM31 38.5C31 37.6716 31.6716 37 32.5 37H44.5C45.3284 37 46 37.6716 46 38.5C46 39.3284 45.3284 40 44.5 40H32.5C31.6716 40 31 39.3284 31 38.5ZM38.5 45C39.3284 45 40 44.3284 40 43.5C40 42.6716 39.3284 42 38.5 42C37.6716 42 37 42.6716 37 43.5C37 44.3284 37.6716 45 38.5 45Z" fill="#FF9900"/>
</svg>
