<svg width="77" height="77" viewBox="0 0 77 77" fill="none" xmlns="http://www.w3.org/2000/svg">
<rect width="77" height="77" rx="16" fill="#292929"/>
<path fill-rule="evenodd" clip-rule="evenodd" d="M32.5 34C31.6716 34 31 34.6716 31 35.5C31 36.3284 31.6716 37 32.5 37H44.5C45.3284 37 46 36.3284 46 35.5C46 34.6716 45.3284 34 44.5 34H32.5ZM32.5 40C31.6716 40 31 40.6716 31 41.5C31 42.3284 31.6716 43 32.5 43H44.5C45.3284 43 46 42.3284 46 41.5C46 40.6716 45.3284 40 44.5 40H32.5Z" fill="#FF9900"/>
</svg>
