<svg width="77" height="77" viewBox="0 0 77 77" fill="none" xmlns="http://www.w3.org/2000/svg">
<rect width="77" height="77" rx="16" fill="#292929"/>
<path fill-rule="evenodd" clip-rule="evenodd" d="M40 32.5C40 31.6716 39.3284 31 38.5 31C37.6716 31 37 31.6716 37 32.5V37L32.5 37C31.6716 37 31 37.6716 31 38.5C31 39.3284 31.6716 40 32.5 40H37V44.5C37 45.3284 37.6716 46 38.5 46C39.3284 46 40 45.3284 40 44.5V40H44.5C45.3284 40 46 39.3284 46 38.5C46 37.6716 45.3284 37 44.5 37L40 37V32.5Z" fill="#FF9900"/>
</svg>
