<svg width="33" height="23" viewBox="0 0 33 23" fill="none" xmlns="http://www.w3.org/2000/svg">
<line x1="10.634" y1="21.634" x2="22.134" y2="1.71539" stroke="white" stroke-width="2" stroke-linecap="round"/>
<path fill-rule="evenodd" clip-rule="evenodd" d="M6 8C6 7.44772 5.55228 7 5 7C4.44772 7 4 7.44772 4 8L4 11L1 11C0.447715 11 0 11.4477 0 12C0 12.5523 0.447715 13 1 13L4 13L4 16C4 16.5523 4.44771 17 5 17C5.55228 17 6 16.5523 6 16V13L9 13C9.55229 13 10 12.5523 10 12C10 11.4477 9.55229 11 9 11L6 11V8Z" fill="white"/>
<line x1="24" y1="10" x2="32" y2="10" stroke="white" stroke-width="2" stroke-linecap="round"/>
</svg>
