<svg width="77" height="77" viewBox="0 0 77 77" fill="none" xmlns="http://www.w3.org/2000/svg">
<rect width="77" height="77" rx="16" fill="#292929"/>
<path fill-rule="evenodd" clip-rule="evenodd" d="M43.9099 35.4246C44.4957 34.8388 44.4957 33.8891 43.9099 33.3033C43.3241 32.7175 42.3744 32.7175 41.7886 33.3033L38.6066 36.4853L35.4246 33.3033C34.8388 32.7175 33.8891 32.7175 33.3033 33.3033C32.7175 33.8891 32.7175 34.8388 33.3033 35.4246L36.4853 38.6066L33.3033 41.7886C32.7175 42.3744 32.7175 43.3241 33.3033 43.9099C33.8891 44.4957 34.8388 44.4957 35.4246 43.9099L38.6066 40.7279L41.7886 43.9099C42.3744 44.4957 43.3241 44.4957 43.9099 43.9099C44.4957 43.3241 44.4957 42.3744 43.9099 41.7886L40.7279 38.6066L43.9099 35.4246Z" fill="#FF9900"/>
</svg>
